<svg xmlns="http://www.w3.org/2000/svg" version="1.1" xmlns:xlink="http://www.w3.org/1999/xlink" xmlns:svgjs="http://svgjs.dev/svgjs" width="1000" height="232" viewBox="0 0 1000 232"><g transform="matrix(1,0,0,1,-0.6060606060606233,0.2921097632195284)"><svg viewBox="0 0 396 92" data-background-color="#003366" preserveAspectRatio="xMidYMid meet" height="232" width="1000" xmlns="http://www.w3.org/2000/svg" xmlns:xlink="http://www.w3.org/1999/xlink"><g id="tight-bounds" transform="matrix(1,0,0,1,0.2400000000000091,-0.11583663024222801)"><svg viewBox="0 0 395.52 92.23167261142564" height="92.23167261142564" width="395.52"><g><svg viewBox="0 0 664.7662895957114 155.01746254324388" height="92.23167261142564" width="395.52"><g transform="matrix(1,0,0,1,267.2686895957115,0)"><svg viewBox="0 0 397.49759999999986 155.01746254324388" height="155.01746254324388" width="397.49759999999986"><g id="textblocktransform"><svg viewBox="0 0 397.49759999999986 155.01746254324388" height="155.01746254324388" width="397.49759999999986" id="textblock"><g><rect width="397.49759999999986" height="8.256996007961812" x="0" y="101.28705749642373" fill="#ffffff" opacity="1" stroke-width="0" stroke="transparent" fill-opacity="1" class="rect-o-0" data-fill-palette-color="primary" rx="1%" id="o-0" data-palette-color="#ffffff"></rect></g><g transform="matrix(1,0,0,1,0.9887999999999693,0)"><svg viewBox="0 0 395.5199999999999 91.56022973835353" height="91.56022973835353" width="395.5199999999999"><g transform="matrix(1,0,0,1,0,0)"><svg width="395.5199999999999" viewBox="5.25 -35.060001373291016 153.02000427246094 35.43000030517578" height="91.56022973835353" data-palette-color="#ffffff"><path d="M21.58-35.06L21.58-35.06Q25.02-35.06 28.02-33.85 31.01-32.64 33.19-30.44 35.38-28.25 36.62-24.96 37.87-21.68 37.87-17.75L37.87-17.75Q37.87-12.43 35.75-8.29 33.64-4.15 29.9-1.89 26.15 0.37 21.41 0.37L21.41 0.37Q18.29 0.37 15.43-0.74 12.57-1.86 10.28-3.98 7.98-6.1 6.62-9.53 5.25-12.96 5.25-17.26L5.25-17.26Q5.25-21.29 6.49-24.63 7.74-27.98 9.91-30.26 12.08-32.54 15.09-33.8 18.09-35.06 21.58-35.06ZM21.36-31.42L21.36-31.42Q19.14-31.42 17.09-30.59 15.04-29.76 13.32-28.16 11.6-26.56 10.56-23.86 9.52-21.17 9.52-17.77L9.52-17.77Q9.52-14.53 10.47-11.78 11.43-9.03 13.06-7.18 14.7-5.32 16.93-4.3 19.17-3.27 21.73-3.27L21.73-3.27Q23.46-3.27 25.13-3.78 26.81-4.3 28.34-5.41 29.88-6.52 31.04-8.13 32.2-9.74 32.9-12.11 33.59-14.48 33.59-17.31L33.59-17.31Q33.59-20.19 32.86-22.58 32.13-24.98 30.92-26.59 29.71-28.2 28.11-29.31 26.51-30.42 24.82-30.92 23.12-31.42 21.36-31.42ZM71.14-25.17L71.14-25.17Q71.14-23.44 70.73-21.88 70.31-20.31 69.43-18.9 68.55-17.48 67-16.44 65.45-15.41 63.38-14.92L63.38-14.92 73.17 0 68.53 0 59.13-14.45 52.41-14.45 52.41 0 48.24 0 48.24-34.69 60.98-34.69Q61.86-34.69 62.57-34.64 63.28-34.59 64.39-34.39 65.5-34.18 66.35-33.83 67.21-33.47 68.15-32.75 69.09-32.03 69.71-31.05 70.33-30.08 70.74-28.56 71.14-27.05 71.14-25.17ZM52.41-31.05L52.41-18.12 58.4-18.12Q59.64-18.12 60.59-18.2 61.55-18.29 62.83-18.66 64.11-19.04 64.95-19.71 65.79-20.39 66.39-21.67 66.99-22.95 66.99-24.71L66.99-24.71Q66.99-25.95 66.67-26.95 66.35-27.95 65.87-28.6 65.38-29.25 64.67-29.72 63.96-30.2 63.3-30.44 62.64-30.69 61.84-30.83 61.03-30.98 60.51-31.02 59.98-31.05 59.4-31.05L59.4-31.05 52.41-31.05ZM94.18-31.52L87.5-31.52 87.5-19.87Q87.96-19.9 89.11-19.91 90.25-19.92 90.89-19.93 91.52-19.95 92.67-20.03 93.82-20.12 94.51-20.23 95.21-20.34 96.2-20.57 97.19-20.8 97.81-21.11 98.43-21.41 99.13-21.89 99.82-22.36 100.21-22.95 100.61-23.54 100.86-24.35 101.12-25.17 101.12-26.15L101.12-26.15Q101.12-26.88 100.97-27.54 100.83-28.2 100.36-28.96 99.9-29.71 99.16-30.25 98.43-30.79 97.15-31.15 95.87-31.52 94.18-31.52L94.18-31.52ZM87.5-16.65L87.5-16.65 87.5-3.66 93.96-3.66Q94.84-3.66 95.44-3.67 96.04-3.69 97.16-3.82 98.29-3.96 99.08-4.19 99.87-4.42 100.85-4.9 101.83-5.37 102.42-6.03 103.02-6.69 103.44-7.73 103.85-8.76 103.85-10.08L103.85-10.08Q103.85-13.33 101.34-15.16 98.82-16.99 94.58-16.99L94.58-16.99Q94.11-16.99 87.5-16.65ZM83.34 0L83.34-34.69 95.58-34.69Q97.36-34.69 98.84-34.31 100.31-33.94 101.28-33.35 102.24-32.76 102.99-31.96 103.73-31.15 104.12-30.4 104.51-29.64 104.76-28.78 105-27.93 105.06-27.38 105.12-26.83 105.12-26.34L105.12-26.34Q105.12-24.22 103.68-22.11 102.24-20 100.63-19.38L100.63-19.38Q103.85-18.8 105.92-16.27 107.98-13.75 107.98-10.52L107.98-10.52Q107.98-9.77 107.84-8.94 107.71-8.11 107.32-7.06 106.93-6.01 106.32-5.05 105.71-4.1 104.66-3.16 103.61-2.22 102.25-1.54 100.9-0.85 98.93-0.43 96.97 0 94.62 0L94.62 0 83.34 0ZM118.84 0L118.84-34.69 122.99-34.69 122.99 0 118.84 0ZM130.92-31.03L130.92-34.69 158.27-34.69 158.27-31.03 146.67-31.03 146.67 0 142.52 0 142.52-31.03 130.92-31.03Z" opacity="1" transform="matrix(1,0,0,1,0,0)" fill="#ffffff" class="wordmark-text-0" data-fill-palette-color="primary" id="text-0"></path></svg></g></svg></g><g transform="matrix(1,0,0,1,0,119.27088126245575)"><svg viewBox="0 0 232.20979199999994 35.74658128078816" height="35.74658128078816" width="232.20979199999994"><g transform="matrix(1,0,0,1,0,0)"><svg width="232.20979199999994" viewBox="2.450000047683716 -38.150001525878906 324.7699890136719 50" height="35.74658128078816" data-palette-color="#ff9966"><path d="M13 0.3L13 0.3Q12 0.3 10.55 0.25 9.1 0.2 7.53 0.1 5.95 0 4.67-0.13 3.4-0.25 2.7-0.4L2.7-0.4 2.7-2.8 13.65-2.8Q15.3-2.8 16.5-3.05 17.7-3.3 18.38-4.15 19.05-5 19.05-6.7L19.05-6.7 19.05-7.9Q19.05-9.65 17.9-10.63 16.75-11.6 14.2-11.6L14.2-11.6 10.45-11.6Q8.1-11.6 6.28-12.2 4.45-12.8 3.45-14.25 2.45-15.7 2.45-18.25L2.45-18.25 2.45-19.65Q2.45-22.15 3.43-23.75 4.4-25.35 6.48-26.15 8.55-26.95 11.85-26.95L11.85-26.95Q13.25-26.95 15.08-26.85 16.9-26.75 18.65-26.58 20.4-26.4 21.5-26.2L21.5-26.2 21.5-23.8 11.2-23.8Q8.65-23.8 7.28-22.95 5.9-22.1 5.9-19.65L5.9-19.65 5.9-18.55Q5.9-17 6.55-16.23 7.2-15.45 8.38-15.2 9.55-14.95 11.1-14.95L11.1-14.95 14.9-14.95Q18.55-14.95 20.55-13.25 22.55-11.55 22.55-8.35L22.55-8.35 22.55-6.5Q22.55-3.8 21.33-2.33 20.1-0.85 17.98-0.28 15.85 0.3 13 0.3ZM32.75 0L28.8 0 28.8-38.15 32.75-38.15 32.75-23.75Q34.6-25.1 37.17-26.13 39.75-27.15 42.55-27.15L42.55-27.15Q45.35-27.15 47.17-25.95 49-24.75 49.87-22.7 50.75-20.65 50.75-18.15L50.75-18.15 50.75 0 46.8 0 46.8-17.75Q46.8-19.45 46.12-20.75 45.45-22.05 44.2-22.8 42.95-23.55 41.2-23.55L41.2-23.55Q39.55-23.55 38.15-23.23 36.75-22.9 35.45-22.33 34.15-21.75 32.75-20.95L32.75-20.95 32.75 0ZM63.4 0.3L63.4 0.3Q60.45 0.3 58.55-1.45 56.65-3.2 56.65-6.4L56.65-6.4 56.65-8.3Q56.65-11.45 58.72-13.4 60.8-15.35 65-15.35L65-15.35 74.05-15.35 74.05-18.65Q74.05-20.3 73.47-21.48 72.9-22.65 71.42-23.3 69.95-23.95 67.15-23.95L67.15-23.95 58.85-23.95 58.85-26.3Q60.6-26.6 62.92-26.85 65.25-27.1 68.4-27.1L68.4-27.1Q71.65-27.15 73.8-26.3 75.95-25.45 76.97-23.63 78-21.8 78-18.85L78-18.85 78 0 74.95 0 74.2-3.05Q74-2.85 72.97-2.35 71.95-1.85 70.37-1.23 68.8-0.6 66.97-0.15 65.15 0.3 63.4 0.3ZM65.05-2.65L65.05-2.65Q65.95-2.6 67.09-2.85 68.25-3.1 69.45-3.43 70.65-3.75 71.67-4.1 72.7-4.45 73.34-4.7 74-4.95 74.05-4.95L74.05-4.95 74.05-13.35 65.9-13Q63.05-12.9 61.82-11.6 60.6-10.3 60.6-8.25L60.6-8.25 60.6-7.05Q60.6-5.45 61.27-4.48 61.95-3.5 62.97-3.1 64-2.7 65.05-2.65ZM89.39 0L85.44 0 85.44-26.7 88.44-26.7 89.39-22.05Q91.19-24.2 93.42-25.6 95.64-27 98.54-27L98.54-27Q99.24-27 99.87-26.95 100.49-26.9 101.04-26.75L101.04-26.75 101.04-22.7Q100.39-22.8 99.64-22.88 98.89-22.95 98.14-22.95L98.14-22.95Q96.29-22.95 94.84-22.5 93.39-22.05 92.09-21.15 90.79-20.25 89.39-18.95L89.39-18.95 89.39 0ZM116.24 0.3L116.24 0.3Q112.04 0.3 109.62-0.95 107.19-2.2 106.14-5.2 105.09-8.2 105.09-13.4L105.09-13.4Q105.09-18.7 106.17-21.68 107.24-24.65 109.69-25.85 112.14-27.05 116.29-27.05L116.29-27.05Q119.84-27.05 122.07-26.25 124.29-25.45 125.37-23.53 126.44-21.6 126.44-18.2L126.44-18.2Q126.44-15.85 125.52-14.43 124.59-13 122.87-12.38 121.14-11.75 118.79-11.75L118.79-11.75 109.04-11.75Q109.09-8.5 109.74-6.53 110.39-4.55 112.12-3.68 113.84-2.8 117.19-2.8L117.19-2.8 125.79-2.8 125.79-0.4Q123.49-0.1 121.29 0.1 119.09 0.3 116.24 0.3ZM108.99-14.35L108.99-14.35 118.49-14.35Q120.74-14.35 121.82-15.18 122.89-16 122.89-18.15L122.89-18.15Q122.89-20.45 122.22-21.73 121.54-23 120.12-23.53 118.69-24.05 116.29-24.05L116.29-24.05Q113.49-24.05 111.89-23.23 110.29-22.4 109.64-20.3 108.99-18.2 108.99-14.35ZM156.84 11.85L153.74 11.85 157.14 0Q155.89-0.05 154.54-0.6 153.19-1.15 152.04-2.5 150.89-3.85 150.14-6.25L150.14-6.25 143.74-26.7 147.89-26.7 153.84-7.1Q154.39-5.55 155.01-4.8 155.64-4.05 156.29-3.75 156.94-3.45 157.41-3.43 157.89-3.4 157.99-3.4L157.99-3.4 164.84-26.7 168.89-26.7 159.14 6.9 156.84 11.85ZM184.23 0.3L184.23 0.3Q181.33 0.3 179.16-0.3 176.98-0.9 175.53-2.4 174.08-3.9 173.38-6.58 172.68-9.25 172.68-13.4L172.68-13.4Q172.68-17.6 173.38-20.28 174.08-22.95 175.53-24.43 176.98-25.9 179.16-26.48 181.33-27.05 184.23-27.05L184.23-27.05Q187.13-27.05 189.31-26.45 191.48-25.85 192.93-24.38 194.38-22.9 195.11-20.23 195.83-17.55 195.83-13.4L195.83-13.4Q195.83-9.2 195.11-6.53 194.38-3.85 192.96-2.38 191.53-0.9 189.33-0.3 187.13 0.3 184.23 0.3ZM184.23-2.95L184.23-2.95Q186.08-2.95 187.51-3.3 188.93-3.65 189.88-4.7 190.83-5.75 191.33-7.85 191.83-9.95 191.83-13.4L191.83-13.4Q191.83-16.9 191.33-18.95 190.83-21 189.88-22.05 188.93-23.1 187.51-23.45 186.08-23.8 184.23-23.8L184.23-23.8Q182.33-23.8 180.93-23.45 179.53-23.1 178.58-22.05 177.63-21 177.13-18.95 176.63-16.9 176.63-13.4L176.63-13.4Q176.63-9.95 177.13-7.85 177.63-5.75 178.58-4.7 179.53-3.65 180.93-3.3 182.33-2.95 184.23-2.95ZM210.43 0.3L210.43 0.3Q206.58 0.3 204.51-1.7 202.43-3.7 202.43-7.9L202.43-7.9 202.43-26.7 206.38-26.7 206.38-8.9Q206.38-5.55 207.91-4.38 209.43-3.2 212.18-3.2L212.18-3.2Q214.53-3.2 216.48-3.88 218.43-4.55 220.48-5.75L220.48-5.75 220.48-26.7 224.43-26.7 224.43 0 221.33 0 220.48-2.95Q218.43-1.65 215.86-0.68 213.28 0.3 210.43 0.3ZM235.83 0L231.88 0 231.88-26.7 234.88-26.7 235.83-22.05Q237.63-24.2 239.85-25.6 242.08-27 244.98-27L244.98-27Q245.68-27 246.3-26.95 246.93-26.9 247.48-26.75L247.48-26.75 247.48-22.7Q246.83-22.8 246.08-22.88 245.33-22.95 244.58-22.95L244.58-22.95Q242.73-22.95 241.28-22.5 239.83-22.05 238.53-21.15 237.23-20.25 235.83-18.95L235.83-18.95 235.83 0ZM271.17 0.3L271.17 0.3Q268.22 0.3 266.32-1.45 264.42-3.2 264.42-6.4L264.42-6.4 264.42-8.3Q264.42-11.45 266.5-13.4 268.57-15.35 272.77-15.35L272.77-15.35 281.82-15.35 281.82-18.65Q281.82-20.3 281.25-21.48 280.67-22.65 279.2-23.3 277.72-23.95 274.92-23.95L274.92-23.95 266.62-23.95 266.62-26.3Q268.37-26.6 270.7-26.85 273.02-27.1 276.17-27.1L276.17-27.1Q279.42-27.15 281.57-26.3 283.72-25.45 284.75-23.63 285.77-21.8 285.77-18.85L285.77-18.85 285.77 0 282.72 0 281.97-3.05Q281.77-2.85 280.75-2.35 279.72-1.85 278.15-1.23 276.57-0.6 274.75-0.15 272.92 0.3 271.17 0.3ZM272.82-2.65L272.82-2.65Q273.72-2.6 274.87-2.85 276.02-3.1 277.22-3.43 278.42-3.75 279.45-4.1 280.47-4.45 281.12-4.7 281.77-4.95 281.82-4.95L281.82-4.95 281.82-13.35 273.67-13Q270.82-12.9 269.6-11.6 268.37-10.3 268.37-8.25L268.37-8.25 268.37-7.05Q268.37-5.45 269.05-4.48 269.72-3.5 270.75-3.1 271.77-2.7 272.82-2.65ZM297.17 0L293.22 0 293.22-26.7 296.22-26.7 297.17-22.05Q298.97-24.2 301.2-25.6 303.42-27 306.32-27L306.32-27Q307.02-27 307.65-26.95 308.27-26.9 308.82-26.75L308.82-26.75 308.82-22.7Q308.17-22.8 307.42-22.88 306.67-22.95 305.92-22.95L305.92-22.95Q304.07-22.95 302.62-22.5 301.17-22.05 299.87-21.15 298.57-20.25 297.17-18.95L297.17-18.95 297.17 0ZM326.82 0L323.17 0Q320.57 0 318.87-0.85 317.17-1.7 316.37-3.6 315.57-5.5 315.62-8.65L315.62-8.65 315.77-23.45 311.52-23.45 311.52-26 315.82-26.7 316.47-34.15 319.52-34.15 319.52-26.7 327.22-26.7 327.22-23.45 319.52-23.45 319.52-8.65Q319.52-6.9 319.89-5.85 320.27-4.8 320.89-4.25 321.52-3.7 322.22-3.48 322.92-3.25 323.57-3.2L323.57-3.2 326.82-2.9 326.82 0Z" opacity="1" transform="matrix(1,0,0,1,0,0)" fill="#ff9966" class="slogan-text-1" data-fill-palette-color="secondary" id="text-1"></path></svg></g></svg></g></svg></g></svg></g><g transform="matrix(1,0,0,1,0,32.06283066362195)"><svg viewBox="0 0 245.65351679999995 90.89180121599998" height="90.89180121599998" width="245.65351679999995"><g><svg xmlns="http://www.w3.org/2000/svg" xmlns:xlink="http://www.w3.org/1999/xlink" version="1.1" x="0" y="0" viewBox="1 32.5 100 37" enable-background="new 0 0 102 102" xml:space="preserve" height="90.89180121599998" width="245.65351679999995" class="icon-icon-0" data-fill-palette-color="accent" id="icon-0"><g fill="#ff9966" data-fill-palette-color="accent"><path d="M36.583 62.57C40.066 66.902 45.365 69.5 51 69.5c5.621 0 10.911-2.587 14.394-6.903C60.721 62.864 55.894 63 51 63 46.425 63 41.406 62.849 36.583 62.57z" fill="#ff9966" data-fill-palette-color="accent"></path><path d="M32.5 51c0 1.807 0.274 3.612 0.817 5.378C38.875 56.791 44.819 57 51 57c6.067 0 12.012-0.213 17.687-0.632C69.227 54.605 69.5 52.804 69.5 51c0-2.116-0.377-4.231-1.12-6.287-0.367-1.013-0.806-1.971-1.306-2.847C63.782 36.089 57.624 32.5 51 32.5c-6.611 0-12.764 3.579-16.059 9.34-0.509 0.891-0.955 1.86-1.324 2.881C32.876 46.773 32.5 48.886 32.5 51z" fill="#ff9966" data-fill-palette-color="accent"></path><path d="M101 51c0-5.727-15.548-8.547-30.872-9.747-0.584-0.046-1.168-0.09-1.751-0.131 0.558 0.978 1.025 2.008 1.413 3.08 0.546 0.043 1.083 0.088 1.613 0.135C88.744 45.859 98 49.1 98 51c0 0.536-1.767 2.326-9.128 4.078l0.876-4.268-8.33 5.68c-3.071 0.464-6.444 0.849-10.011 1.158-0.538 0.047-1.067 0.097-1.614 0.14C63.903 58.251 57.517 58.5 51 58.5c-7.013 0-13.281-0.266-18.79-0.702-0.546-0.043-1.083-0.089-1.614-0.135C13.257 56.141 4 52.9 4 51c0-0.536 1.767-2.326 9.127-4.077l-0.876 4.267 8.329-5.679c3.072-0.464 6.445-0.85 10.012-1.159 0.538-0.047 1.068-0.097 1.615-0.14 0.392-1.085 0.867-2.128 1.432-3.116-0.594 0.042-1.17 0.092-1.756 0.139-3.983 0.315-7.757 0.722-11.182 1.224L10.053 40.3l2.517 3.671C4.8 45.794 1 48.101 1 51c0 5.721 15.512 8.54 30.82 9.742 0.602 0.047 1.203 0.093 1.803 0.135C39.923 61.322 46.084 61.5 51 61.5c0 0 0 0 0 0 5.979 0 11.859-0.206 17.36-0.596 0.612-0.043 1.206-0.095 1.809-0.143 3.965-0.314 7.721-0.721 11.131-1.219l10.647 2.158-2.517-3.671C97.2 56.205 101 53.898 101 51z" fill="#ff9966" data-fill-palette-color="accent"></path></g></svg></g></svg></g></svg></g><defs></defs></svg><rect width="395.52" height="92.23167261142564" fill="none" stroke="none" visibility="hidden"></rect></g></svg></g></svg>